<mxfile host="app.diagrams.net" modified="2022-03-16T17:50:26.098Z" agent="5.0 (Windows NT 10.0; Win64; x64) AppleWebKit/537.36 (KHTML, like Gecko) Chrome/99.0.4844.51 Safari/537.36 Edg/99.0.1150.39" etag="NK1gshhCIiFdO8q9J5ZB" version="17.1.3" type="github">
  <diagram id="YASKxuEMGQLfJ9bK-KgY" name="Page-1">
    <mxGraphModel dx="1038" dy="579" grid="1" gridSize="10" guides="1" tooltips="1" connect="0" arrows="1" fold="1" page="1" pageScale="1" pageWidth="827" pageHeight="1169" math="0" shadow="0">
      <root>
        <mxCell id="0" />
        <mxCell id="1" parent="0" />
        <mxCell id="uTfg0Z0D2ezhghU1qf4a-1" value="Zoo" style="rounded=0;whiteSpace=wrap;html=1;fillColor=#b0e3e6;strokeColor=#0e8088;" vertex="1" parent="1">
          <mxGeometry x="349" y="40" width="130" height="80" as="geometry" />
        </mxCell>
        <mxCell id="uTfg0Z0D2ezhghU1qf4a-22" style="edgeStyle=orthogonalEdgeStyle;rounded=0;orthogonalLoop=1;jettySize=auto;html=1;startArrow=none;startFill=0;endArrow=diamond;endFill=1;strokeColor=#FF0080;" edge="1" parent="1" source="uTfg0Z0D2ezhghU1qf4a-2">
          <mxGeometry relative="1" as="geometry">
            <mxPoint x="480" y="80" as="targetPoint" />
            <Array as="points">
              <mxPoint x="695" y="80" />
            </Array>
          </mxGeometry>
        </mxCell>
        <mxCell id="uTfg0Z0D2ezhghU1qf4a-2" value="Stock" style="rounded=0;whiteSpace=wrap;html=1;fillColor=#b0e3e6;strokeColor=#0e8088;" vertex="1" parent="1">
          <mxGeometry x="630" y="180" width="130" height="80" as="geometry" />
        </mxCell>
        <mxCell id="uTfg0Z0D2ezhghU1qf4a-20" style="edgeStyle=orthogonalEdgeStyle;rounded=0;orthogonalLoop=1;jettySize=auto;html=1;entryX=-0.029;entryY=0.458;entryDx=0;entryDy=0;entryPerimeter=0;startArrow=none;startFill=0;endArrow=diamond;endFill=1;strokeColor=#FF0080;" edge="1" parent="1" source="uTfg0Z0D2ezhghU1qf4a-3" target="uTfg0Z0D2ezhghU1qf4a-1">
          <mxGeometry relative="1" as="geometry">
            <Array as="points">
              <mxPoint x="135" y="80" />
              <mxPoint x="345" y="80" />
            </Array>
          </mxGeometry>
        </mxCell>
        <mxCell id="uTfg0Z0D2ezhghU1qf4a-3" value="Cuidador" style="rounded=0;whiteSpace=wrap;html=1;fillColor=#b0e3e6;strokeColor=#0e8088;" vertex="1" parent="1">
          <mxGeometry x="70" y="160" width="130" height="80" as="geometry" />
        </mxCell>
        <mxCell id="uTfg0Z0D2ezhghU1qf4a-18" value="" style="edgeStyle=orthogonalEdgeStyle;rounded=0;orthogonalLoop=1;jettySize=auto;html=1;startArrow=none;startFill=0;endArrow=diamond;endFill=1;strokeColor=#FF0080;" edge="1" parent="1" source="uTfg0Z0D2ezhghU1qf4a-5" target="uTfg0Z0D2ezhghU1qf4a-3">
          <mxGeometry relative="1" as="geometry" />
        </mxCell>
        <mxCell id="uTfg0Z0D2ezhghU1qf4a-5" value="Vacaciones" style="rounded=0;whiteSpace=wrap;html=1;fillColor=#b0e3e6;strokeColor=#0e8088;" vertex="1" parent="1">
          <mxGeometry x="70" y="320" width="130" height="80" as="geometry" />
        </mxCell>
        <mxCell id="uTfg0Z0D2ezhghU1qf4a-17" style="edgeStyle=orthogonalEdgeStyle;rounded=0;orthogonalLoop=1;jettySize=auto;html=1;entryX=1;entryY=0.5;entryDx=0;entryDy=0;entryPerimeter=0;startArrow=none;startFill=0;endArrow=diamond;endFill=0;strokeColor=#FF0080;" edge="1" parent="1" source="uTfg0Z0D2ezhghU1qf4a-6" target="uTfg0Z0D2ezhghU1qf4a-3">
          <mxGeometry relative="1" as="geometry" />
        </mxCell>
        <mxCell id="uTfg0Z0D2ezhghU1qf4a-21" style="edgeStyle=orthogonalEdgeStyle;rounded=0;orthogonalLoop=1;jettySize=auto;html=1;entryX=0.586;entryY=1.008;entryDx=0;entryDy=0;entryPerimeter=0;startArrow=none;startFill=0;endArrow=diamond;endFill=1;strokeColor=#FF0080;" edge="1" parent="1" source="uTfg0Z0D2ezhghU1qf4a-6" target="uTfg0Z0D2ezhghU1qf4a-1">
          <mxGeometry relative="1" as="geometry" />
        </mxCell>
        <mxCell id="uTfg0Z0D2ezhghU1qf4a-6" value="Animal" style="rounded=0;whiteSpace=wrap;html=1;fillColor=#b0e3e6;strokeColor=#0e8088;" vertex="1" parent="1">
          <mxGeometry x="360" y="320" width="130" height="80" as="geometry" />
        </mxCell>
        <mxCell id="uTfg0Z0D2ezhghU1qf4a-19" style="edgeStyle=orthogonalEdgeStyle;rounded=0;orthogonalLoop=1;jettySize=auto;html=1;startArrow=none;startFill=0;endArrow=diamond;endFill=0;strokeColor=#FF0080;" edge="1" parent="1" source="uTfg0Z0D2ezhghU1qf4a-7">
          <mxGeometry relative="1" as="geometry">
            <mxPoint x="695" y="260" as="targetPoint" />
            <Array as="points">
              <mxPoint x="695" y="261" />
            </Array>
          </mxGeometry>
        </mxCell>
        <mxCell id="uTfg0Z0D2ezhghU1qf4a-7" value="Comida" style="rounded=0;whiteSpace=wrap;html=1;fillColor=#b0e3e6;strokeColor=#0e8088;" vertex="1" parent="1">
          <mxGeometry x="630" y="330" width="130" height="80" as="geometry" />
        </mxCell>
        <mxCell id="uTfg0Z0D2ezhghU1qf4a-13" style="rounded=0;orthogonalLoop=1;jettySize=auto;html=1;entryX=0.502;entryY=1.038;entryDx=0;entryDy=0;entryPerimeter=0;edgeStyle=orthogonalEdgeStyle;startArrow=none;startFill=0;endArrow=diamond;endFill=0;strokeColor=#FF0080;" edge="1" parent="1" source="uTfg0Z0D2ezhghU1qf4a-8" target="uTfg0Z0D2ezhghU1qf4a-6">
          <mxGeometry relative="1" as="geometry" />
        </mxCell>
        <mxCell id="uTfg0Z0D2ezhghU1qf4a-16" style="edgeStyle=orthogonalEdgeStyle;rounded=0;orthogonalLoop=1;jettySize=auto;html=1;entryX=0.489;entryY=0.988;entryDx=0;entryDy=0;entryPerimeter=0;startArrow=none;startFill=0;endArrow=diamond;endFill=0;strokeColor=#FF0080;" edge="1" parent="1" source="uTfg0Z0D2ezhghU1qf4a-8" target="uTfg0Z0D2ezhghU1qf4a-7">
          <mxGeometry relative="1" as="geometry" />
        </mxCell>
        <mxCell id="uTfg0Z0D2ezhghU1qf4a-8" value="Class: Dieta" style="swimlane;fontStyle=0;childLayout=stackLayout;horizontal=1;startSize=26;fillColor=#d80073;horizontalStack=0;resizeParent=1;resizeParentMax=0;resizeLast=0;collapsible=1;marginBottom=0;fontColor=#ffffff;strokeColor=#A50040;" vertex="1" parent="1">
          <mxGeometry x="355" y="460" width="140" height="106" as="geometry" />
        </mxCell>
        <mxCell id="uTfg0Z0D2ezhghU1qf4a-9" value="Herbívoro" style="text;strokeColor=#0e8088;fillColor=#b0e3e6;align=left;verticalAlign=top;spacingLeft=4;spacingRight=4;overflow=hidden;rotatable=0;points=[[0,0.5],[1,0.5]];portConstraint=eastwest;" vertex="1" parent="uTfg0Z0D2ezhghU1qf4a-8">
          <mxGeometry y="26" width="140" height="26" as="geometry" />
        </mxCell>
        <mxCell id="uTfg0Z0D2ezhghU1qf4a-10" value="Carnívoro" style="text;strokeColor=#0e8088;fillColor=#b0e3e6;align=left;verticalAlign=top;spacingLeft=4;spacingRight=4;overflow=hidden;rotatable=0;points=[[0,0.5],[1,0.5]];portConstraint=eastwest;" vertex="1" parent="uTfg0Z0D2ezhghU1qf4a-8">
          <mxGeometry y="52" width="140" height="28" as="geometry" />
        </mxCell>
        <mxCell id="uTfg0Z0D2ezhghU1qf4a-11" value="Insectívoro" style="text;strokeColor=#0e8088;fillColor=#b0e3e6;align=left;verticalAlign=top;spacingLeft=4;spacingRight=4;overflow=hidden;rotatable=0;points=[[0,0.5],[1,0.5]];portConstraint=eastwest;" vertex="1" parent="uTfg0Z0D2ezhghU1qf4a-8">
          <mxGeometry y="80" width="140" height="26" as="geometry" />
        </mxCell>
        <mxCell id="uTfg0Z0D2ezhghU1qf4a-23" value="1" style="text;html=1;align=center;verticalAlign=middle;resizable=0;points=[];autosize=1;strokeColor=none;fillColor=none;" vertex="1" parent="1">
          <mxGeometry x="710" y="300" width="20" height="20" as="geometry" />
        </mxCell>
        <mxCell id="uTfg0Z0D2ezhghU1qf4a-24" value="1" style="text;html=1;align=center;verticalAlign=middle;resizable=0;points=[];autosize=1;strokeColor=none;fillColor=none;" vertex="1" parent="1">
          <mxGeometry x="440" y="290" width="20" height="20" as="geometry" />
        </mxCell>
        <mxCell id="uTfg0Z0D2ezhghU1qf4a-25" value="1" style="text;html=1;align=center;verticalAlign=middle;resizable=0;points=[];autosize=1;strokeColor=none;fillColor=none;" vertex="1" parent="1">
          <mxGeometry x="160" y="290" width="20" height="20" as="geometry" />
        </mxCell>
        <mxCell id="uTfg0Z0D2ezhghU1qf4a-26" value="1" style="text;html=1;align=center;verticalAlign=middle;resizable=0;points=[];autosize=1;strokeColor=none;fillColor=none;" vertex="1" parent="1">
          <mxGeometry x="700" y="160" width="20" height="20" as="geometry" />
        </mxCell>
        <mxCell id="uTfg0Z0D2ezhghU1qf4a-27" value="1" style="text;html=1;align=center;verticalAlign=middle;resizable=0;points=[];autosize=1;strokeColor=none;fillColor=none;" vertex="1" parent="1">
          <mxGeometry x="160" y="140" width="20" height="20" as="geometry" />
        </mxCell>
        <mxCell id="uTfg0Z0D2ezhghU1qf4a-28" value="1" style="text;html=1;align=center;verticalAlign=middle;resizable=0;points=[];autosize=1;strokeColor=none;fillColor=none;" vertex="1" parent="1">
          <mxGeometry x="510" y="90" width="20" height="20" as="geometry" />
        </mxCell>
        <mxCell id="uTfg0Z0D2ezhghU1qf4a-29" value="1..n" style="text;html=1;align=center;verticalAlign=middle;resizable=0;points=[];autosize=1;strokeColor=none;fillColor=none;" vertex="1" parent="1">
          <mxGeometry x="315" y="330" width="40" height="20" as="geometry" />
        </mxCell>
        <mxCell id="uTfg0Z0D2ezhghU1qf4a-30" value="0..n" style="text;html=1;align=center;verticalAlign=middle;resizable=0;points=[];autosize=1;strokeColor=none;fillColor=none;" vertex="1" parent="1">
          <mxGeometry x="374" y="140" width="40" height="20" as="geometry" />
        </mxCell>
        <mxCell id="uTfg0Z0D2ezhghU1qf4a-31" value="0..n" style="text;html=1;align=center;verticalAlign=middle;resizable=0;points=[];autosize=1;strokeColor=none;fillColor=none;" vertex="1" parent="1">
          <mxGeometry x="210" y="210" width="40" height="20" as="geometry" />
        </mxCell>
        <mxCell id="uTfg0Z0D2ezhghU1qf4a-32" value="0..n" style="text;html=1;align=center;verticalAlign=middle;resizable=0;points=[];autosize=1;strokeColor=none;fillColor=none;" vertex="1" parent="1">
          <mxGeometry x="90" y="250" width="40" height="20" as="geometry" />
        </mxCell>
        <mxCell id="uTfg0Z0D2ezhghU1qf4a-33" value="0..n" style="text;html=1;align=center;verticalAlign=middle;resizable=0;points=[];autosize=1;strokeColor=none;fillColor=none;" vertex="1" parent="1">
          <mxGeometry x="640" y="260" width="40" height="20" as="geometry" />
        </mxCell>
        <mxCell id="uTfg0Z0D2ezhghU1qf4a-34" value="0..n" style="text;html=1;align=center;verticalAlign=middle;resizable=0;points=[];autosize=1;strokeColor=none;fillColor=none;" vertex="1" parent="1">
          <mxGeometry x="270" y="50" width="40" height="20" as="geometry" />
        </mxCell>
        <mxCell id="uTfg0Z0D2ezhghU1qf4a-35" value="1..n" style="text;html=1;align=center;verticalAlign=middle;resizable=0;points=[];autosize=1;strokeColor=none;fillColor=none;" vertex="1" parent="1">
          <mxGeometry x="420" y="440" width="40" height="20" as="geometry" />
        </mxCell>
        <mxCell id="uTfg0Z0D2ezhghU1qf4a-36" value="1..n" style="text;html=1;align=center;verticalAlign=middle;resizable=0;points=[];autosize=1;strokeColor=none;fillColor=none;" vertex="1" parent="1">
          <mxGeometry x="700" y="420" width="40" height="20" as="geometry" />
        </mxCell>
      </root>
    </mxGraphModel>
  </diagram>
</mxfile>
